A.Nightmare.on.Elm.Street.3.Dream.Warriors.1987.BRrip.720p.Dual.Audio.Eng-Hindi~MSBHATTI

IMDB:- http://www.imdb.com/title/tt0093629/

PLOT:- Survivors of undead serial killer Freddy Krueger - who stalks his victims in their dreams - learn to take control of their own dreams in order to fight back.

Director: Chuck Russell
Writers: Wes Craven (story), Bruce Wagner (story)
Stars: Heather Langenkamp, Robert Englund and Craig Wasson 

INFO:-

General
Complete name                    : A.Nightmare.on.Elm.Street.3.Dream.Warriors.1987.BRrip.720p.Dual.Audio.Eng-Hindi~MSBHATTI
Format                           : Matroska
File size                        : 2.41 GiB
Duration                         : 1h 36mn
Overall bit rate                 : 3 569 Kbps
Encoded date                     : UTC 2011-12-16 21:20:28
Writing application              : mkvmerge v3.3.0 ('Language') built on Mar 24 2010 14:59:24
Writing library                  : libebml v0.8.0 + libmatroska v0.9.0

Video
ID                               : 1
Format                           : AVC
Format/Info                      : Advanced Video Codec
Format profile                   : High@L4.1
Format settings, CABAC           : Yes
Format settings, ReFrames        : 6 frames
Codec ID                         : V_MPEG4/ISO/AVC
Duration                         : 1h 36mn
Bit rate                         : 2 800 Kbps
Width                            : 1 280 pixels
Height                           : 720 pixels
Display aspect ratio             : 16:9
Frame rate                       : 23.976 fps
Color space                      : YUV
Chroma subsampling               : 4:2:0
Bit depth                        : 8 bits
Scan type                        : Progressive
Bits/(Pixel*Frame)               : 0.127
Stream size                      : 1.84 GiB (76%)
Writing library                  : x264 core 116 r2074 2641b9e
Encoding settings                : cabac=1 / ref=6 / deblock=1:-2:-2 / analyse=0x3:0x133 / me=umh / subme=10 / psy=1 / psy_rd=1.50:0.00 / mixed_ref=1 / me_range=32 / chroma_me=1 / trellis=2 / 8x8dct=1 / cqm=0 / deadzone=21,11 / fast_pskip=1 / chroma_qp_offset=-2 / threads=12 / sliced_threads=0 / nr=0 / decimate=1 / interlaced=0 / bluray_compat=0 / constrained_intra=0 / bframes=6 / b_pyramid=2 / b_adapt=2 / b_bias=0 / direct=1 / weightb=1 / open_gop=0 / weightp=2 / keyint=250 / keyint_min=23 / scenecut=40 / intra_refresh=0 / rc_lookahead=50 / rc=2pass / mbtree=1 / bitrate=2800 / ratetol=1.0 / qcomp=0.60 / qpmin=10 / qpmax=51 / qpstep=4 / cplxblur=20.0 / qblur=0.5 / ip_ratio=1.40 / aq=1:1.50
Language                         : English

Audio #1
ID                               : 2
Format                           : AC-3
Format/Info                      : Audio Coding 3
Mode extension                   : CM (complete main)
Codec ID                         : A_AC3
Duration                         : 1h 36mn
Bit rate mode                    : Constant
Bit rate                         : 512 Kbps
Channel(s)                       : 6 channels
Channel positions                : Front: L C R, Side: L R, LFE
Sampling rate                    : 48.0 KHz
Bit depth                        : 16 bits
Compression mode                 : Lossy
Stream size                      : 354 MiB (14%)
Title                            : MSBHATTI
Language                         : English

Audio #2
ID                               : 3
Format                           : MPEG Audio
Format version                   : Version 1
Format profile                   : Layer 3
Codec ID                         : A_MPEG/L3
Codec ID/Hint                    : MP3
Duration                         : 1h 36mn
Bit rate mode                    : Constant
Bit rate                         : 256 Kbps
Channel(s)                       : 2 channels
Sampling rate                    : 48.0 KHz
Compression mode                 : Lossy
Stream size                      : 177 MiB (7%)
Title                            : MSBHATTI
Language                         : Hindi

SCREENSHOTS:-
[IMG]http://i.imgur.com/4Kasn.jpg[/IMG]
[IMG]http://i.imgur.com/lMyXu.jpg[/IMG]
[IMG]http://i.imgur.com/wTO44.jpg[/IMG]

NOTE:- IF U LIKE MY WORK SO COMMENT PLZ

REGARDS

MSBHATTI